<svg width="894" height="208" viewBox="0 0 894 208" fill="none" xmlns="http://www.w3.org/2000/svg">
<path d="M275 0C277.209 0 279 1.79086 279 4V204C279 206.209 277.209 208 275 208H226C223.791 208 222 206.209 222 204V4C222 1.79086 223.791 0 226 0H275Z" fill="white"/>
<path d="M65.1738 154.644C65.1738 156.853 66.9647 158.644 69.1738 158.644H123.999C126.208 158.644 127.999 160.435 127.999 162.644V204C127.999 206.209 126.208 208 123.999 208H4C1.79086 208 0 206.209 0 204V4C0 1.79086 1.79086 0 4 0H61.1738C63.3829 0 65.1738 1.79086 65.1738 4V154.644Z" fill="white"/>
<path d="M894 204C894 206.209 892.209 208 890 208H830.979C829.635 208 828.381 207.325 827.641 206.203L767.175 114.538C764.99 111.226 759.836 112.773 759.836 116.741V204C759.836 206.209 758.045 208 755.836 208H698.662C696.453 208 694.662 206.209 694.662 204V4C694.662 1.79086 696.453 0 698.662 0H757.663C759.018 0 760.281 0.686172 761.019 1.82309L821.47 95.0112C823.638 98.3532 828.826 96.8179 828.826 92.8343V4C828.826 1.79086 830.617 0 832.826 0H890C892.209 0 894 1.79086 894 4V204Z" fill="white"/>
</svg>
